# xmcd
#
# Track frame offsets:
#	150
#	14832
#	32789
#	49964
#	67813
#	82252
#	99750
#	116309
#	137372
#	152082
#	170673
#
# Disc length: 2552 seconds
#
# Revision: 0
# Processed by: cddbd v1.5.2PL0 Copyright (c) Steve Scherf et al.
# Submitted via: EasyCDDAExtractor 15.1.0.1
#
DISCID=8a09f60b
DTITLE=Sarah Morris - A Collection
DYEAR=2008
DGENRE=Country
TTITLE0=Fallin
TTITLE1=Maybe Tomorrow
TTITLE2=All Fall Down
TTITLE3=With You
TTITLE4=Need You Anymore
TTITLE5=Hay Fever
TTITLE6=Grateful Moon
TTITLE7=Your Spell
TTITLE8=Let Me Tell You About Lonely
TTITLE9=At's Always Something
TTITLE10=You Still Have Me
EXTD=
EXTT0=
EXTT1=
EXTT2=
EXTT3=
EXTT4=
EXTT5=
EXTT6=
EXTT7=
EXTT8=
EXTT9=
EXTT10=
PLAYORDER=
